<svg width="22" height="26" viewBox="0 0 22 26" fill="none" xmlns="http://www.w3.org/2000/svg">
<path d="M10.709 1V3.42737V1Z" fill="white"/>
<path d="M10.709 1V3.42737" stroke="white" stroke-width="1.66667" stroke-linecap="round" stroke-linejoin="round"/>
<path d="M10.7095 3.42773C6.69219 3.42773 3.42737 6.69255 3.42737 10.7099V17.992C2.21369 17.992 1 19.2057 1 20.4193H10.7095M10.7095 3.42773C14.7268 3.42773 17.9916 6.69255 17.9916 10.7099V17.992C19.2053 17.992 20.419 19.2057 20.419 20.4193H10.7095" fill="white"/>
<path d="M10.7095 3.42773C6.69219 3.42773 3.42737 6.69255 3.42737 10.7099V17.992C2.21369 17.992 1 19.2057 1 20.4193H10.7095H20.419C20.419 19.2057 19.2053 17.992 17.9916 17.992V10.7099C17.9916 6.69255 14.7268 3.42773 10.7095 3.42773Z" stroke="white" stroke-width="1.66667" stroke-linecap="round" stroke-linejoin="round"/>
<path d="M8.28223 22.4902C8.28223 23.8253 9.37454 24.9176 10.7096 24.9176C12.0447 24.9176 13.137 23.8253 13.137 22.4902" fill="white"/>
<path d="M8.28223 22.4902C8.28223 23.8253 9.37454 24.9176 10.7096 24.9176C12.0447 24.9176 13.137 23.8253 13.137 22.4902" stroke="white" stroke-width="1.66667" stroke-linecap="square" stroke-linejoin="round"/>
</svg>
