<svg width="31" height="30" viewBox="0 0 31 30" fill="none" xmlns="http://www.w3.org/2000/svg">
<path fill-rule="evenodd" clip-rule="evenodd" d="M10.5113 3.4875L7.73633 7.1875C7.59079 7.38156 7.40206 7.53906 7.1851 7.64754C6.96814 7.75602 6.7289 7.8125 6.48633 7.8125H5.86133C4.94965 7.8125 4.0753 8.17466 3.43065 8.81932C2.78599 9.46398 2.42383 10.3383 2.42383 11.25V23.75C2.42383 24.6617 2.78599 25.536 3.43065 26.1807C4.0753 26.8253 4.94965 27.1875 5.86133 27.1875H25.8613C26.773 27.1875 27.6474 26.8253 28.292 26.1807C28.9367 25.536 29.2988 24.6617 29.2988 23.75V11.25C29.2988 10.3383 28.9367 9.46398 28.292 8.81932C27.6474 8.17466 26.773 7.8125 25.8613 7.8125H25.2363C24.9938 7.8125 24.7545 7.75602 24.5376 7.64754C24.3206 7.53906 24.1319 7.38156 23.9863 7.1875L21.2113 3.4875C21.0541 3.27792 20.8503 3.10781 20.616 2.99065C20.3817 2.87349 20.1233 2.8125 19.8613 2.8125H11.8613C11.3301 2.8125 10.8301 3.0625 10.5113 3.4875ZM15.8613 10.3125C15.0816 10.3125 14.3095 10.4661 13.5891 10.7645C12.8688 11.0629 12.2142 11.5002 11.6629 12.0516C11.1115 12.6029 10.6742 13.2574 10.3758 13.9778C10.0774 14.6982 9.92383 15.4703 9.92383 16.25C9.92383 17.0297 10.0774 17.8018 10.3758 18.5222C10.6742 19.2426 11.1115 19.8971 11.6629 20.4484C12.2142 20.9998 12.8688 21.4371 13.5891 21.7355C14.3095 22.0339 15.0816 22.1875 15.8613 22.1875C17.4361 22.1875 18.9463 21.5619 20.0598 20.4484C21.1733 19.3349 21.7988 17.8247 21.7988 16.25C21.7988 14.6753 21.1733 13.1651 20.0598 12.0516C18.9463 10.9381 17.4361 10.3125 15.8613 10.3125Z" fill="white"/>
</svg>
