<svg width="27" height="29" viewBox="0 0 27 29" fill="none" xmlns="http://www.w3.org/2000/svg">
<path d="M25.5452 6.4895L23.6618 4.61034C23.7012 4.41841 23.7208 4.22293 23.7202 4.027C23.72 3.48977 23.5844 2.96125 23.326 2.49029C23.0675 2.01932 22.6945 1.62112 22.2414 1.33248C21.7883 1.04384 21.2697 0.87408 20.7336 0.838894C20.1976 0.803708 19.6613 0.90423 19.1743 1.13117C19.1126 1.15935 19.0588 1.20217 19.0174 1.2559C18.976 1.30963 18.9483 1.37266 18.9368 1.4395C18.9254 1.5055 18.93 1.57328 18.9503 1.63711C18.9706 1.70094 19.006 1.75893 19.0535 1.80617L20.866 3.6145L20.116 4.3645L18.3077 2.552C18.26 2.50525 18.2019 2.47063 18.138 2.45106C18.0742 2.43148 18.0067 2.42752 17.941 2.4395C17.8746 2.45058 17.8118 2.4776 17.7581 2.51824C17.7044 2.55887 17.6614 2.61192 17.6327 2.67284C17.405 3.16138 17.3045 3.69958 17.3407 4.23736C17.3769 4.77515 17.5485 5.29505 17.8395 5.7487C18.1306 6.20235 18.5317 6.57502 19.0055 6.83203C19.4793 7.08904 20.0103 7.22204 20.5493 7.21867C20.7453 7.2193 20.9407 7.19975 21.1327 7.16034L23.0118 9.04367C23.0506 9.08272 23.0966 9.11372 23.1474 9.13487C23.1982 9.15603 23.2527 9.16692 23.3077 9.16692C23.3627 9.16692 23.4171 9.15603 23.4679 9.13487C23.5187 9.11372 23.5648 9.08272 23.6035 9.04367C23.6425 9.00493 23.6735 8.95885 23.6947 8.90808C23.7159 8.8573 23.7267 8.80284 23.7267 8.74784C23.7267 8.69283 23.7159 8.63837 23.6947 8.5876C23.6735 8.53682 23.6425 8.49074 23.6035 8.452L21.5618 6.41034C21.5108 6.35965 21.4475 6.32304 21.3782 6.30406C21.3088 6.28507 21.2357 6.28437 21.166 6.302C20.9648 6.35588 20.7576 6.38388 20.5493 6.38534C20.2377 6.38808 19.9286 6.32914 19.6398 6.21191C19.351 6.09467 19.0883 5.92146 18.8668 5.70225C18.6452 5.48304 18.4693 5.22216 18.349 4.93465C18.2287 4.64713 18.1665 4.33866 18.166 4.027C18.1655 3.88743 18.1766 3.74805 18.1993 3.61034L19.8327 5.24784C19.8714 5.28689 19.9175 5.31789 19.9683 5.33904C20.019 5.36019 20.0735 5.37109 20.1285 5.37109C20.1835 5.37109 20.238 5.36019 20.2887 5.33904C20.3395 5.31789 20.3856 5.28689 20.4243 5.24784L21.7493 3.91034C21.8244 3.83264 21.8664 3.72881 21.8664 3.62075C21.8664 3.51269 21.8244 3.40886 21.7493 3.33117L20.1285 1.69784C20.2662 1.67534 20.4056 1.66419 20.5452 1.6645C21.171 1.66561 21.7709 1.915 22.213 2.35793C22.6552 2.80087 22.9035 3.40115 22.9035 4.027C22.902 4.23526 22.874 4.44249 22.8202 4.64367C22.8025 4.71339 22.8032 4.78648 22.8222 4.85585C22.8412 4.92521 22.8778 4.98848 22.9285 5.0395L24.9702 7.08117C25.0486 7.15963 25.155 7.20371 25.266 7.20371C25.377 7.20371 25.4834 7.15963 25.5618 7.08117C25.6403 7.00271 25.6844 6.8963 25.6844 6.78534C25.6844 6.67438 25.6403 6.56796 25.5618 6.4895H25.5452Z" fill="#313342"/>
<path d="M21.272 14.156L19.904 10.051C19.7056 9.45348 19.3238 8.9337 18.8131 8.56551C18.3024 8.19732 17.6886 7.99944 17.059 8H7.941C7.31139 7.99944 6.69761 8.19732 6.18688 8.56551C5.67615 8.9337 5.29445 9.45348 5.096 10.051L3.728 14.156C3.36461 14.3085 3.05428 14.5648 2.83584 14.8928C2.61741 15.2208 2.50059 15.6059 2.5 16V21C2.5 21.753 2.923 22.402 3.539 22.743C3.526 22.809 3.5 22.869 3.5 22.938V25C3.5 25.2652 3.60536 25.5196 3.79289 25.7071C3.98043 25.8946 4.23478 26 4.5 26H5.5C5.76522 26 6.01957 25.8946 6.20711 25.7071C6.39464 25.5196 6.5 25.2652 6.5 25V23H18.5V25C18.5 25.2652 18.6054 25.5196 18.7929 25.7071C18.9804 25.8946 19.2348 26 19.5 26H20.5C20.7652 26 21.0196 25.8946 21.2071 25.7071C21.3946 25.5196 21.5 25.2652 21.5 25V22.938C21.5 22.869 21.474 22.808 21.461 22.743C21.7744 22.5721 22.0362 22.3202 22.2189 22.0136C22.4017 21.707 22.4988 21.357 22.5 21V16C22.5 15.171 21.992 14.459 21.272 14.156ZM4.5 21V16H20.5L20.502 21H4.5ZM7.941 10H17.058C17.489 10 17.871 10.274 18.007 10.684L19.113 14H5.887L6.992 10.684C7.05835 10.4848 7.18572 10.3115 7.35605 10.1888C7.52638 10.066 7.73104 9.99995 7.941 10Z" fill="#313342"/>
<path d="M7 20C7.82843 20 8.5 19.3284 8.5 18.5C8.5 17.6716 7.82843 17 7 17C6.17157 17 5.5 17.6716 5.5 18.5C5.5 19.3284 6.17157 20 7 20Z" fill="#313342"/>
<path d="M18 20C18.8284 20 19.5 19.3284 19.5 18.5C19.5 17.6716 18.8284 17 18 17C17.1716 17 16.5 17.6716 16.5 18.5C16.5 19.3284 17.1716 20 18 20Z" fill="#313342"/>
</svg>
