<svg width="6" height="10" viewBox="0 0 6 10" fill="none" xmlns="http://www.w3.org/2000/svg">
<path d="M2.604 10V9.12301C1.82 9.03948 1.192 8.77753 0.72 8.33713C0.248 7.89674 0.00800002 7.31967 0 6.60592H1.344C1.352 6.9628 1.464 7.2779 1.68 7.55125C1.896 7.81701 2.204 7.99544 2.604 8.08656V5.34169C2.54 5.3265 2.472 5.30752 2.4 5.28474C2.336 5.26196 2.268 5.23918 2.196 5.2164C1.548 5.01139 1.06 4.74563 0.732 4.41913C0.412 4.09264 0.252 3.66363 0.252 3.13212C0.244 2.50949 0.456 2.00076 0.888 1.60592C1.32 1.21109 1.892 0.979499 2.604 0.911162V0H3.42V0.922551C4.116 0.998481 4.676 1.23766 5.1 1.64009C5.524 2.04252 5.74 2.54746 5.748 3.1549H4.404C4.396 2.90433 4.308 2.66894 4.14 2.44875C3.98 2.22096 3.74 2.0653 3.42 1.98178V4.41913C3.484 4.44191 3.548 4.46469 3.612 4.48747C3.676 4.50266 3.74 4.52164 3.804 4.54442C4.22 4.6735 4.592 4.82916 4.92 5.01139C5.248 5.19362 5.508 5.4328 5.7 5.72893C5.9 6.02506 6 6.40091 6 6.85649C6 7.23614 5.904 7.59302 5.712 7.92711C5.52 8.25361 5.232 8.52696 4.848 8.74715C4.464 8.96735 3.988 9.09643 3.42 9.1344V10H2.604ZM1.572 3.02961C1.572 3.33333 1.664 3.56872 1.848 3.73576C2.032 3.89522 2.284 4.03569 2.604 4.15718V1.94761C2.3 2.00076 2.052 2.12225 1.86 2.31207C1.668 2.49431 1.572 2.73349 1.572 3.02961ZM4.656 6.93622C4.656 6.56416 4.54 6.28322 4.308 6.09339C4.076 5.89598 3.78 5.73273 3.42 5.60365V8.10934C3.812 8.06378 4.116 7.9347 4.332 7.7221C4.548 7.50949 4.656 7.24753 4.656 6.93622Z" fill="white"/>
</svg>
