<svg width="22" height="22" viewBox="0 0 22 22" fill="none" xmlns="http://www.w3.org/2000/svg">
<path d="M2.75 3.69553L3.69523 2.75031L19.25 18.3051L18.3048 19.2503L2.75 3.69553ZM11.1436 8.25387L13.7462 10.8565C13.7101 10.178 13.4243 9.53678 12.9438 9.05631C12.4633 8.57584 11.8221 8.29003 11.1436 8.25387ZM10.8566 13.7461L8.25395 11.1435C8.29011 11.822 8.57592 12.4632 9.05639 12.9437C9.53686 13.4242 10.178 13.71 10.8566 13.7461Z" fill="#9E9E9E"/>
<path d="M11 15.125C10.3654 15.125 9.73936 14.9786 9.17057 14.6972C8.60178 14.4158 8.10559 14.007 7.7206 13.5025C7.33561 12.998 7.07221 12.4115 6.95089 11.7886C6.82956 11.1657 6.85359 10.5233 7.02109 9.91117L4.05324 6.94289C2.84109 8.0532 1.68609 9.50211 0.6875 11C1.82273 12.8906 3.37562 14.8345 4.99297 15.9491C6.84836 17.227 8.86574 17.875 10.9897 17.875C12.1504 17.8758 13.3024 17.6751 14.3945 17.282L12.091 14.9789C11.7355 15.0762 11.3686 15.1254 11 15.125ZM11 6.875C11.6346 6.87497 12.2606 7.02135 12.8294 7.30276C13.3982 7.58418 13.8944 7.99302 14.2794 8.4975C14.6644 9.00198 14.9278 9.58847 15.0491 10.2114C15.1704 10.8343 15.1464 11.4767 14.9789 12.0888L18.0151 15.125C19.2676 13.9971 20.4243 12.4798 21.3125 11C20.179 9.13387 18.6098 7.19469 16.9649 6.06633C15.0863 4.77812 13.0758 4.125 10.9897 4.125C9.84175 4.12663 8.70345 4.33461 7.6291 4.73902L9.91117 7.02109C10.266 6.92397 10.6322 6.87483 11 6.875Z" fill="#9E9E9E"/>
</svg>
