<svg width="22" height="23" viewBox="0 0 22 23" fill="none" xmlns="http://www.w3.org/2000/svg">
<path d="M11.0001 8.75C10.2707 8.75 9.57126 9.03973 9.05554 9.55546C8.53981 10.0712 8.25008 10.7707 8.25008 11.5C8.25008 12.2293 8.53981 12.9288 9.05554 13.4445C9.57126 13.9603 10.2707 14.25 11.0001 14.25C11.7294 14.25 12.4289 13.9603 12.9446 13.4445C13.4604 12.9288 13.7501 12.2293 13.7501 11.5C13.7501 10.7707 13.4604 10.0712 12.9446 9.55546C12.4289 9.03973 11.7294 8.75 11.0001 8.75ZM11.0001 16.0833C9.78451 16.0833 8.61872 15.6004 7.75918 14.7409C6.89963 13.8814 6.41675 12.7156 6.41675 11.5C6.41675 10.2844 6.89963 9.11864 7.75918 8.25909C8.61872 7.39955 9.78451 6.91667 11.0001 6.91667C12.2157 6.91667 13.3814 7.39955 14.241 8.25909C15.1005 9.11864 15.5834 10.2844 15.5834 11.5C15.5834 12.7156 15.1005 13.8814 14.241 14.7409C13.3814 15.6004 12.2157 16.0833 11.0001 16.0833ZM11.0001 4.625C6.41675 4.625 2.50258 7.47583 0.916748 11.5C2.50258 15.5242 6.41675 18.375 11.0001 18.375C15.5834 18.375 19.4976 15.5242 21.0834 11.5C19.4976 7.47583 15.5834 4.625 11.0001 4.625Z" fill="#9E9E9E"/>
</svg>
