<svg width="10" height="10" viewBox="0 0 10 10" fill="none" xmlns="http://www.w3.org/2000/svg">
<path d="M9.04467 6.49146L7.16134 4.61229C7.20076 4.42036 7.2203 4.22489 7.21967 4.02896C7.21953 3.49173 7.08396 2.9632 6.82548 2.49224C6.56701 2.02128 6.19399 1.62307 5.74088 1.33443C5.28778 1.04579 4.76923 0.876033 4.23315 0.840847C3.69708 0.805661 3.16078 0.906183 2.67384 1.13312C2.61215 1.1613 2.55827 1.20412 2.51688 1.25785C2.47549 1.31159 2.44784 1.37461 2.43634 1.44146C2.42488 1.50745 2.42951 1.57523 2.44981 1.63906C2.47012 1.70289 2.50552 1.76088 2.55301 1.80812L4.36551 3.61646L3.61551 4.36646L1.80717 2.55396C1.75954 2.50721 1.70136 2.47259 1.63755 2.45301C1.57375 2.43343 1.50617 2.42947 1.44051 2.44146C1.37408 2.45254 1.31133 2.47955 1.25764 2.52019C1.20394 2.56083 1.16089 2.61387 1.13217 2.67479C0.904477 3.16333 0.804042 3.70153 0.840213 4.23932C0.876384 4.7771 1.04799 5.297 1.33905 5.75065C1.63012 6.20431 2.0312 6.57697 2.50498 6.83398C2.97876 7.09099 3.50985 7.224 4.04884 7.22062C4.24477 7.22125 4.44025 7.2017 4.63217 7.16229L6.51134 9.04562C6.55008 9.08468 6.59616 9.11567 6.64693 9.13683C6.69771 9.15798 6.75217 9.16887 6.80717 9.16887C6.86218 9.16887 6.91664 9.15798 6.96742 9.13683C7.01819 9.11567 7.06427 9.08468 7.10301 9.04562C7.14206 9.00689 7.17306 8.9608 7.19421 8.91003C7.21537 8.85925 7.22626 8.80479 7.22626 8.74979C7.22626 8.69478 7.21537 8.64032 7.19421 8.58955C7.17306 8.53877 7.14206 8.49269 7.10301 8.45396L5.06134 6.41229C5.01032 6.36161 4.94705 6.32499 4.87769 6.30601C4.80832 6.28703 4.73523 6.28632 4.66551 6.30396C4.46433 6.35783 4.2571 6.38583 4.04884 6.38729C3.7372 6.39004 3.42808 6.3311 3.13932 6.21386C2.85055 6.09663 2.58783 5.92342 2.3663 5.70421C2.14476 5.48499 1.96879 5.22412 1.84852 4.9366C1.72824 4.64909 1.66605 4.34061 1.66551 4.02896C1.66497 3.88938 1.67612 3.75 1.69884 3.61229L3.33217 5.24979C3.37091 5.28884 3.41699 5.31984 3.46777 5.34099C3.51854 5.36215 3.573 5.37304 3.62801 5.37304C3.68301 5.37304 3.73747 5.36215 3.78825 5.34099C3.83902 5.31984 3.88511 5.28884 3.92384 5.24979L5.24884 3.91229C5.32394 3.83459 5.36592 3.73076 5.36592 3.62271C5.36592 3.51465 5.32394 3.41082 5.24884 3.33312L3.62801 1.69979C3.76575 1.67729 3.90511 1.66615 4.04467 1.66646C4.67053 1.66756 5.27037 1.91695 5.71252 2.35989C6.15468 2.80282 6.40301 3.4031 6.40301 4.02896C6.40155 4.23722 6.37355 4.44444 6.31967 4.64562C6.30204 4.71534 6.30274 4.78844 6.32173 4.8578C6.34071 4.92717 6.37733 4.99044 6.42801 5.04146L8.46967 7.08312C8.54813 7.16158 8.65455 7.20566 8.76551 7.20566C8.87647 7.20566 8.98288 7.16158 9.06134 7.08312C9.1398 7.00466 9.18388 6.89825 9.18388 6.78729C9.18388 6.67633 9.1398 6.56992 9.06134 6.49146H9.04467Z" fill="white"/>
</svg>
