<svg width="17" height="17" viewBox="0 0 17 17" fill="currentColor" xmlns="http://www.w3.org/2000/svg">
<path d="M11.0829 9.00677C11.7774 8.4604 12.2843 7.71117 12.5331 6.86331C12.7819 6.01545 12.7602 5.11112 12.4711 4.27614C12.182 3.44116 11.6399 2.71705 10.9201 2.20454C10.2003 1.69204 9.33863 1.41663 8.45502 1.41663C7.5714 1.41663 6.70976 1.69204 5.98997 2.20454C5.27017 2.71705 4.72801 3.44116 4.43892 4.27614C4.14982 5.11112 4.12817 6.01545 4.37697 6.86331C4.62577 7.71117 5.13265 8.4604 5.8271 9.00677C4.63715 9.48351 3.59889 10.2742 2.82298 11.2946C2.04708 12.315 1.56262 13.5269 1.42126 14.8009C1.41103 14.894 1.41922 14.9881 1.44537 15.0779C1.47151 15.1678 1.5151 15.2516 1.57364 15.3246C1.69186 15.4721 1.86382 15.5665 2.05168 15.5872C2.23954 15.6078 2.42792 15.553 2.57537 15.4348C2.72282 15.3166 2.81727 15.1446 2.83793 14.9568C2.99347 13.5721 3.65371 12.2933 4.6925 11.3647C5.7313 10.436 7.07582 9.92266 8.46918 9.92266C9.86255 9.92266 11.2071 10.436 12.2459 11.3647C13.2847 12.2933 13.9449 13.5721 14.1004 14.9568C14.1197 15.1308 14.2027 15.2916 14.3335 15.408C14.4644 15.5244 14.6337 15.5882 14.8088 15.5872H14.8867C15.0724 15.5658 15.2421 15.4719 15.3588 15.326C15.4756 15.18 15.5299 14.9939 15.51 14.808C15.368 13.5303 14.8809 12.3154 14.101 11.2934C13.3211 10.2714 12.2778 9.48098 11.0829 9.00677ZM8.45502 8.50385C7.89464 8.50385 7.34684 8.33768 6.8809 8.02635C6.41496 7.71502 6.0518 7.27251 5.83736 6.75479C5.62291 6.23706 5.5668 5.66738 5.67612 5.11776C5.78545 4.56815 6.0553 4.0633 6.45155 3.66705C6.84779 3.2708 7.35265 3.00095 7.90226 2.89163C8.45187 2.7823 9.02156 2.83841 9.53929 3.05286C10.057 3.26731 10.4995 3.63046 10.8108 4.0964C11.1222 4.56234 11.2883 5.11014 11.2883 5.67052C11.2883 6.42197 10.9898 7.14264 10.4585 7.67399C9.92713 8.20534 9.20646 8.50385 8.45502 8.50385Z" fill="currentColor"/>
</svg>
