<svg width="25" height="25" viewBox="0 0 25 25" fill="none" xmlns="http://www.w3.org/2000/svg">
<path d="M8 14H14V15.5H8V14ZM8 10.25H17V11.75H8V10.25ZM8 17.75H11.75V19.25H8V17.75Z" fill="#38384A"/>
<path d="M19.25 4.25H17V3.5C17 3.10218 16.842 2.72064 16.5607 2.43934C16.2794 2.15804 15.8978 2 15.5 2H9.5C9.10218 2 8.72064 2.15804 8.43934 2.43934C8.15804 2.72064 8 3.10218 8 3.5V4.25H5.75C5.35218 4.25 4.97064 4.40804 4.68934 4.68934C4.40804 4.97064 4.25 5.35218 4.25 5.75V21.5C4.25 21.8978 4.40804 22.2794 4.68934 22.5607C4.97064 22.842 5.35218 23 5.75 23H19.25C19.6478 23 20.0294 22.842 20.3107 22.5607C20.592 22.2794 20.75 21.8978 20.75 21.5V5.75C20.75 5.35218 20.592 4.97064 20.3107 4.68934C20.0294 4.40804 19.6478 4.25 19.25 4.25ZM9.5 3.5H15.5V6.5H9.5V3.5ZM19.25 21.5H5.75V5.75H8V8H17V5.75H19.25V21.5Z" fill="#38384A"/>
</svg>
