<svg width="18" height="18" viewBox="0 0 18 18" fill="none" xmlns="http://www.w3.org/2000/svg">
<path fill-rule="evenodd" clip-rule="evenodd" d="M8.68506 7.26067C9.07795 7.2755 9.40848 6.96902 9.42331 6.57613C9.45675 5.69038 9.50372 5.04391 9.54989 4.5804C9.59536 4.12393 9.87093 3.84928 10.2551 3.80233C10.708 3.74696 11.347 3.70164 12.2238 3.70164C13.1006 3.70164 13.7396 3.74696 14.1926 3.80233C14.5765 3.84927 14.8522 4.12404 14.8977 4.58062C14.9834 5.44098 15.0714 6.92742 15.0714 9.39689C15.0714 11.8664 14.9834 13.3528 14.8977 14.2132C14.8522 14.6697 14.5765 14.9445 14.1926 14.9914C13.7396 15.0468 13.1006 15.0921 12.2238 15.0921C11.347 15.0921 10.708 15.0468 10.2551 14.9915C9.87093 14.9445 9.59536 14.6698 9.54989 14.2134C9.50372 13.7499 9.45675 13.1034 9.42331 12.2177C9.40848 11.8248 9.07795 11.5183 8.68506 11.5331C8.29216 11.5479 7.98568 11.8785 8.00052 12.2714C8.03484 13.1805 8.0835 13.8567 8.13309 14.3545C8.23736 15.4011 8.96706 16.2684 10.0823 16.4047C10.6014 16.4682 11.2989 16.5159 12.2238 16.5159C13.1487 16.5159 13.8462 16.4682 14.3653 16.4047C15.4807 16.2684 16.2102 15.4007 16.3145 14.3543C16.4063 13.4329 16.4952 11.8968 16.4952 9.39689C16.4952 6.89701 16.4063 5.36087 16.3145 4.43948C16.2102 3.39307 15.4807 2.52539 14.3653 2.38904C13.8462 2.32558 13.1487 2.27783 12.2238 2.27783C11.2989 2.27783 10.6014 2.32558 10.0823 2.38904C8.96706 2.52536 8.23736 3.39264 8.13309 4.43926C8.0835 4.93711 8.03484 5.61329 8.00052 6.52242C7.98568 6.91531 8.29216 7.24584 8.68506 7.26067Z" fill="black"/>
<path fill-rule="evenodd" clip-rule="evenodd" d="M5.96478 7.40873C6.2428 7.13072 6.2428 6.67996 5.96478 6.40195C5.68677 6.12393 5.23601 6.12393 4.958 6.40195L2.46632 8.89362C2.18831 9.17163 2.18831 9.62239 2.46632 9.9004L4.958 12.3921C5.23601 12.6701 5.68677 12.6701 5.96478 12.3921C6.2428 12.1141 6.2428 11.6633 5.96478 11.3853L4.68841 10.1089H11.5126C11.9058 10.1089 12.2245 9.79018 12.2245 9.39701C12.2245 9.00383 11.9058 8.6851 11.5126 8.6851L4.68841 8.6851L5.96478 7.40873Z" fill="black"/>
</svg>
