<svg width="12" height="5" viewBox="0 0 12 5" fill="none" xmlns="http://www.w3.org/2000/svg">
<path d="M6.10683 0.144533C6.06549 0.0987352 6.0163 0.0623846 5.96211 0.0375781C5.90792 0.0127715 5.84979 0 5.79108 0C5.73237 0 5.67425 0.0127715 5.62005 0.0375781C5.56586 0.0623846 5.51667 0.0987352 5.47533 0.144533L2.16218 3.78963L0.770217 2.25537C0.727292 2.20981 0.67662 2.17399 0.621095 2.14995C0.56557 2.1259 0.506278 2.11411 0.446606 2.11525C0.386933 2.11638 0.328048 2.13042 0.273313 2.15656C0.218578 2.18269 0.169064 2.22042 0.127599 2.26758C0.0861346 2.31475 0.0535306 2.37042 0.0316487 2.43143C0.00976686 2.49243 -0.000964392 2.55758 6.80055e-05 2.62314C0.0011004 2.6887 0.0138762 2.7534 0.0376657 2.81354C0.0614552 2.87368 0.0957926 2.92808 0.138717 2.97364L1.84643 4.84994C1.88778 4.89573 1.93696 4.93208 1.99116 4.95689C2.04535 4.9817 2.10348 4.99447 2.16218 4.99447C2.22089 4.99447 2.27902 4.9817 2.33321 4.95689C2.3874 4.93208 2.43659 4.89573 2.47793 4.84994L6.10683 0.862803C6.15197 0.817048 6.188 0.761515 6.21264 0.699705C6.23728 0.637895 6.25 0.571147 6.25 0.503668C6.25 0.436189 6.23728 0.369441 6.21264 0.307631C6.188 0.245821 6.15197 0.190288 6.10683 0.144533Z" fill="white"/>
<path d="M11.1068 0.148439C11.0655 0.102641 11.0163 0.0662909 10.9621 0.0414843C10.9079 0.0166778 10.8498 0.00390625 10.7911 0.00390625C10.7324 0.00390625 10.6742 0.0166778 10.6201 0.0414843C10.5659 0.0662909 10.5167 0.102641 10.4753 0.148439L7.16218 3.79354L5.77022 2.25927C5.72729 2.21372 5.67662 2.17789 5.62109 2.15385C5.56557 2.12981 5.50628 2.11802 5.44661 2.11915C5.38693 2.12029 5.32805 2.13432 5.27331 2.16046C5.21858 2.1866 5.16906 2.22433 5.1276 2.27149C5.08613 2.31865 5.05353 2.37433 5.03165 2.43533C5.00977 2.49634 4.99904 2.56148 5.00007 2.62705C5.0011 2.69261 5.01388 2.75731 5.03767 2.81745C5.06146 2.87758 5.09579 2.93199 5.13872 2.97754L6.84643 4.85384C6.88778 4.89964 6.93696 4.93599 6.99116 4.9608C7.04535 4.9856 7.10348 4.99837 7.16218 4.99837C7.22089 4.99837 7.27902 4.9856 7.33321 4.9608C7.3874 4.93599 7.43659 4.89964 7.47793 4.85384L11.1068 0.866709C11.152 0.820954 11.188 0.765422 11.2126 0.703611C11.2373 0.641801 11.25 0.575053 11.25 0.507574C11.25 0.440095 11.2373 0.373347 11.2126 0.311537C11.188 0.249727 11.152 0.194194 11.1068 0.148439Z" fill="white"/>
</svg>
